PathFileType	4	(X/Y/Z)	SUBJ36_0_static_RCNL2025.trc
DataRate	CameraRate	NumFrames	NumMarkers	Units	OrigDataRate	OrigDataStartFrame	OrigNumFrames
100	100	5	25	mm	100	90	143
Frame#	Time	R_Shoulder			L_Shoulder			C7			J_Notch			R_Elbow			L_Elbow			R_Wrist			L_Wrist			R_Asis			L_Asis			Sacral			Thoracic			Sternum			R_Thigh_Lateral			R_Knee_Lateral			R_Shank_Lateral			R_Ankle_Lateral			R_Heel			R_Toe			L_Thigh_Lateral			L_Knee_Lateral			L_Shank_Lateral			L_Ankle_Lateral			L_Heel			L_Toe		
		X1	Y1	Z1	X2	Y2	Z2	X3	Y3	Z3	X4	Y4	Z4	X5	Y5	Z5	X6	Y6	Z6	X7	Y7	Z7	X8	Y8	Z8	X9	Y9	Z9	X10	Y10	Z10	X11	Y11	Z11	X12	Y12	Z12	X13	Y13	Z13	X14	Y14	Z14	X15	Y15	Z15	X16	Y16	Z16	X17	Y17	Z17	X18	Y18	Z18	X19	Y19	Z19	X20	Y20	Z20	X21	Y21	Z21	X22	Y22	Z22	X23	Y23	Z23	X24	Y24	Z24	X25	Y25	Z25
90	0.89000000	-320.391174	1362.988403	-73.886681	-338.900574	1346.172974	-417.857086	-399.731659	1415.902832	-228.791229	-257.558960	1319.395142	-239.966110	-338.397278	1055.777222	43.699730	-350.802582	1041.539307	-505.844482	-260.941528	830.998627	55.641595	-236.352318	837.306366	-510.501312	-230.926193	926.461487	-115.903290	-219.979935	922.206238	-345.269104	-444.632782	907.417358	-235.262787	-456.284027	1148.843384	-234.569809	-210.540863	1143.300049	-236.735397	-351.835632	512.781494	-64.955147	-357.966034	452.346283	-113.276573	-398.801514	244.484985	-71.615097	-351.317200	99.706696	-119.708107	-456.021576	48.961258	-185.459015	-289.038788	49.807682	-166.416763	-334.233826	528.123108	-427.236053	-348.528534	454.234528	-354.339172	-386.520538	242.432739	-389.729309	-400.388153	75.827316	-312.033569	-442.794464	46.256908	-261.596558	-271.909637	48.488831	-281.081848
91	0.90000000	-320.488098	1362.962524	-73.935249	-338.905487	1346.162964	-417.841980	-399.837799	1415.913452	-228.926025	-257.676605	1319.376343	-239.997238	-338.583588	1055.740234	43.585987	-350.775726	1041.566284	-505.864227	-261.006104	831.114960	55.630125	-236.437622	837.277863	-510.529266	-231.078156	926.498352	-115.978195	-220.092651	922.182434	-345.286255	-444.710968	907.430420	-235.320618	-456.353363	1148.852905	-234.652039	-210.707916	1143.303833	-236.702271	-352.709045	513.163269	-64.416199	-357.994537	452.400238	-113.235214	-398.793396	244.502060	-71.586143	-351.418121	99.776596	-119.613434	-456.050812	49.016308	-185.423660	-289.045166	49.809555	-166.408188	-334.333588	528.089661	-427.151978	-348.529968	454.234833	-354.339508	-386.526794	242.467072	-389.745728	-400.365265	75.814598	-312.021606	-442.802551	46.251358	-261.595551	-271.970367	48.550411	-281.028168
92	0.91000000	-320.594849	1362.996460	-74.004326	-338.906464	1346.168091	-417.966980	-400.046539	1415.926880	-228.957504	-257.765106	1319.388672	-239.946609	-338.698792	1055.809326	43.523487	-350.938324	1041.515747	-505.895233	-261.086700	831.145111	55.609379	-236.441597	837.299072	-510.543304	-231.104599	926.523193	-116.022209	-220.078033	922.257385	-345.327789	-444.771851	907.433533	-235.300751	-456.417419	1148.850464	-234.727356	-210.754303	1143.306274	-236.694458	-352.954254	513.313721	-64.294701	-358.069489	452.371613	-113.316956	-398.845093	244.515701	-71.557732	-351.232971	99.635040	-119.799843	-456.133362	49.051147	-185.488480	-289.039215	49.815872	-166.434540	-334.360535	528.123779	-427.225098	-348.601196	454.275238	-354.417511	-386.646149	242.440323	-389.730652	-400.375671	75.806671	-312.019592	-442.798798	46.308163	-261.613495	-271.972229	48.548542	-281.042145
93	0.92000000	-320.710236	1362.999146	-74.041786	-339.060852	1346.102417	-418.021637	-400.028625	1415.887573	-228.975327	-257.887360	1319.404419	-239.976868	-338.799469	1055.818115	43.483265	-350.870178	1041.512573	-506.034485	-261.221970	831.031555	55.547711	-236.426369	837.262329	-510.538483	-231.226776	926.519165	-116.081490	-220.075607	922.257263	-345.316193	-444.805145	907.394409	-235.404877	-456.552490	1148.869385	-234.755295	-210.856384	1143.294434	-236.788513	-352.116852	512.944092	-64.776840	-358.012848	452.367401	-113.360451	-398.849213	244.493896	-71.679642	-351.313477	99.811890	-119.681931	-456.030029	48.966499	-185.464233	-288.989349	49.875614	-166.467682	-334.438324	528.141846	-427.244293	-348.732208	454.254761	-354.428192	-386.643829	242.465698	-389.736267	-400.365875	75.790520	-312.011780	-442.731384	46.292233	-261.667206	-271.964417	48.529343	-281.000488
94	0.93000000	-320.750458	1363.005859	-74.120026	-339.092926	1346.132812	-417.997528	-400.181976	1415.916504	-229.113144	-258.015289	1319.388184	-240.020126	-339.023590	1055.767456	43.400719	-350.842529	1041.515625	-506.076385	-261.337158	831.147980	55.559781	-236.408241	837.291992	-510.540085	-231.265244	926.580933	-116.045715	-220.145920	922.338989	-345.350372	-444.802185	907.391174	-235.413467	-456.678375	1148.781372	-234.787155	-210.896194	1143.277588	-236.713837	-352.750061	513.137573	-64.507011	-358.006531	452.367065	-113.356819	-398.916138	244.513840	-71.567017	-351.270386	99.799339	-119.732010	-456.080627	48.973202	-185.535400	-288.970917	49.851982	-166.450531	-334.407837	528.126038	-427.280182	-348.733093	454.278412	-354.433899	-386.642853	242.474716	-389.744995	-400.371277	75.796982	-312.009674	-442.785950	46.299850	-261.623657	-271.957764	48.571442	-281.017334
